<svg width="43" height="32" viewBox="0 0 43 32" fill="none" xmlns="http://www.w3.org/2000/svg">
<path d="M29.5625 0C26.8213 0 24.4563 1.39825 23.005 3.51561C25.4238 5.67291 26.875 8.62921 26.875 12.025C26.875 13.1835 26.7137 14.2222 26.3912 15.2609C27.4125 15.7004 28.4338 16.02 29.5625 16.02C34.0238 16.02 37.625 12.4245 37.625 8.02996C37.625 3.63546 34.0238 0.0399501 29.5625 0.0399501V0ZM13.4375 3.99501C8.97625 3.99501 5.375 7.59051 5.375 11.985C5.375 16.3795 8.97625 19.975 13.4375 19.975C17.8988 19.975 21.5 16.3795 21.5 11.985C21.5 7.59051 17.8988 3.99501 13.4375 3.99501ZM38.9688 16.6192C36.6575 18.6567 33.4862 19.8951 29.885 19.975C31.3363 21.4931 32.25 23.3308 32.25 25.3283V27.965H43V21.3333C43 19.2559 41.3338 17.4582 38.9688 16.5793V16.6192ZM4.03125 20.6142C1.66625 21.4931 0 23.2909 0 25.3683V32H26.875V25.3683C26.875 23.2909 25.2087 21.4931 22.8438 20.6142C20.425 22.7316 17.1462 23.97 13.4375 23.97C9.72875 23.97 6.45 22.6916 4.03125 20.6142Z" fill="#F2F7FB"/>
</svg>
